HIERARCHY
ROOT root
{
	OFFSET 0.000000 0.000000 0.000000
	CHANNELS 6 Xposition Yposition Zposition Zrotation Yrotation Xrotation
	JOINT lhip
	{
		OFFSET 0.058581 -0.082280 -0.017664
		CHANNELS 3 Zrotation Yrotation Xrotation
		JOINT lknee
		{
			OFFSET 0.043451 -0.386469 0.008037
			CHANNELS 3 Zrotation Yrotation Xrotation
			JOINT lankle
			{
				OFFSET -0.014790 -0.426874 -0.037428
				CHANNELS 3 Zrotation Yrotation Xrotation
				JOINT ltoe
				{
					OFFSET 0.041054 -0.060286 0.122042
					CHANNELS 3 Zrotation Yrotation Xrotation
					End Site
					{
						OFFSET 0.000000 0.000000 0.000000
					}
				}
			}
		}
	}
	JOINT rhip
	{
		OFFSET -0.060310 -0.090513 -0.013543
		CHANNELS 3 Zrotation Yrotation Xrotation
		JOINT rknee
		{
			OFFSET -0.043257 -0.383688 -0.004843
			CHANNELS 3 Zrotation Yrotation Xrotation
			JOINT rankle
			{
				OFFSET 0.019056 -0.420046 -0.034562
				CHANNELS 3 Zrotation Yrotation Xrotation
				JOINT rtoe
				{
					OFFSET -0.034840 -0.062106 0.130323
					CHANNELS 3 Zrotation Yrotation Xrotation
					End Site
					{
						OFFSET 0.000000 0.000000 0.000000
					}
				}
			}
		}
	}
	JOINT lowerback
	{
		OFFSET 0.004439 0.124404 -0.038385
		CHANNELS 3 Zrotation Yrotation Xrotation
		JOINT upperback
		{
			OFFSET 0.004488 0.137956 0.026820
			CHANNELS 3 Zrotation Yrotation Xrotation
			JOINT chest
			{
				OFFSET -0.002265 0.056032 0.002855
				CHANNELS 3 Zrotation Yrotation Xrotation
				JOINT lowerneck
				{
					OFFSET -0.013390 0.211636 -0.033468
					CHANNELS 3 Zrotation Yrotation Xrotation
					JOINT upperneck
					{
						OFFSET 0.010113 0.088937 0.050410
						CHANNELS 3 Zrotation Yrotation Xrotation
						End Site
						{
							OFFSET 0.000000 0.000000 0.000000
						}
					}
				}
				JOINT lclavicle
				{
					OFFSET 0.071702 0.114000 -0.018898
					CHANNELS 3 Zrotation Yrotation Xrotation
					JOINT lshoulder
					{
						OFFSET 0.122921 0.045205 -0.019046
						CHANNELS 3 Zrotation Yrotation Xrotation
						JOINT lelbow
						{
							OFFSET 0.255332 -0.015649 -0.022946
							CHANNELS 3 Zrotation Yrotation Xrotation
							JOINT lwrist
							{
								OFFSET 0.265709 0.012698 -0.007375
								CHANNELS 3 Zrotation Yrotation Xrotation
								End Site
								{
									OFFSET 0.000000 0.000000 0.000000
								}
							}
						}
					}
				}
				JOINT rclavicle
				{
					OFFSET -0.082954 0.112472 -0.023707
					CHANNELS 3 Zrotation Yrotation Xrotation
					JOINT rshoulder
					{
						OFFSET -0.113228 0.046853 -0.008472
						CHANNELS 3 Zrotation Yrotation Xrotation
						JOINT relbow
						{
							OFFSET -0.260127 -0.014369 -0.031269
							CHANNELS 3 Zrotation Yrotation Xrotation
							JOINT rwrist
							{
								OFFSET -0.269108 0.006794 -0.006027
								CHANNELS 3 Zrotation Yrotation Xrotation
								End Site
								{
									OFFSET 0.000000 0.000000 0.000000
								}
							}
						}
					}
				}
			}
		}
	}
}
MOTION
Frames: 17
Frame Time: 0.033333
0.163899 0.692107 0.921696 88.391730 -2.442217 75.594581 4.149347 2.623120 -7.036046 -10.189175 -2.610926 41.654348 5.349548 20.739991 -28.450010 0.000000 -0.000000 0.000000 -5.123460 -3.822532 -10.103076 5.408457 1.955855 46.228519 0.306490 -11.313218 -15.717663 0.000000 -0.000000 0.000000 -2.273375 1.495266 9.040239 1.673116 -6.243841 10.630553 1.362136 2.000568 -4.914290 -2.516709 0.067845 6.136982 7.867512 1.353770 -5.156277 -1.985025 -30.406333 -3.900324 -11.560096 -31.205207 -11.864011 13.775806 -26.978022 -5.108340 -1.268794 -7.819667 16.981366 3.796648 35.510659 0.588720 8.140014 34.890434 -18.956447 -14.017259 23.036354 -5.815747 -4.110476 7.480718 11.886744 
0.168571 0.691430 0.920797 88.467558 -2.644403 73.859816 3.980433 3.553427 -4.879648 -9.919935 -3.624592 41.936719 4.846259 20.233027 -28.749891 0.000000 -0.000000 0.000000 -5.593779 -4.508333 -8.050600 4.987457 2.177694 46.834472 -1.373860 -13.072609 -27.686852 0.000000 -0.000000 0.000000 -2.014543 1.632854 9.121356 1.023482 -6.378055 13.231360 1.324045 1.743786 -6.348144 -2.660821 0.131261 7.117359 7.994483 1.359302 -6.116292 -2.614010 -30.860605 -3.637871 -11.199396 -31.927464 -12.731737 13.640567 -25.722234 -5.406445 -3.313362 -9.625054 20.129101 3.904163 36.296148 1.164871 7.603947 35.457067 -18.966794 -15.131388 19.705855 -5.405058 -2.303241 9.970479 14.149616 
0.171683 0.688689 0.919727 88.821188 -2.771286 72.475238 4.042631 5.698599 -4.345822 -8.837458 -3.705221 44.111997 5.307308 18.385347 -26.146274 0.000000 -0.000000 0.000000 -5.596229 -5.289067 -5.933978 4.512270 2.848323 46.205625 -3.042417 -13.366964 -28.162587 0.000000 -0.000000 0.000000 -1.216768 1.432270 9.884471 0.253206 -6.483403 13.933518 0.937404 0.783936 -6.390565 -2.579007 1.728376 6.650660 7.964365 5.640041 -7.772331 -4.888434 -33.528126 -2.289911 -6.613412 -27.816719 -11.559162 12.845320 -26.278476 -4.975256 -0.399638 -12.542651 15.664175 6.273092 36.830285 3.212700 3.855403 37.054841 -21.321239 -13.926814 18.885128 -4.526168 -4.752898 11.866354 13.578139 
0.174961 0.686578 0.919405 88.915314 -2.607549 71.843430 4.267523 5.949580 -3.304185 -8.619541 -3.991203 44.154744 5.532075 18.292351 -26.511694 0.000000 -0.000000 0.000000 -5.395158 -5.665749 -4.878031 4.446469 2.954567 46.228318 -3.589766 -13.306398 -28.599017 0.000000 -0.000000 0.000000 -1.062672 1.521815 9.495181 0.232202 -6.566471 13.811993 1.074327 0.487044 -6.195748 -2.774341 1.245958 7.562911 6.569089 6.319510 -10.054213 -5.249514 -34.547933 -1.458898 -6.302351 -27.293215 -12.648699 12.110658 -25.847004 -4.768954 -2.877528 -12.178643 16.957360 6.149372 37.292930 3.908511 4.287299 37.698887 -22.563566 -14.615269 18.475245 -4.164398 -1.825482 10.654034 13.964592 
0.177020 0.685998 0.919165 89.025992 -2.529495 71.592599 4.350041 5.827982 -2.839211 -8.587859 -4.109836 44.116283 5.527764 18.430352 -26.673094 0.000000 -0.000000 0.000000 -5.358072 -5.644106 -4.327742 4.565004 2.906477 46.137731 -3.638105 -13.417212 -28.813340 0.000000 -0.000000 0.000000 -0.919082 1.420167 9.267897 0.132009 -6.669506 13.622790 1.071826 0.376749 -6.106359 -2.919280 1.360940 7.492817 6.432207 6.431887 -10.359736 -5.655645 -34.970270 -1.168701 -6.186455 -26.900842 -12.742673 11.981257 -25.608684 -4.929196 -4.466286 -11.935208 17.623209 6.083161 37.544016 3.820436 5.128092 37.762353 -21.893239 -15.313669 18.636167 -3.828463 -0.503485 9.842562 14.022628 
0.178977 0.685042 0.918873 88.964362 -2.509658 71.351797 4.425754 5.858315 -2.380008 -8.517643 -4.184177 44.213607 5.556260 18.517699 -26.962083 0.000000 -0.000000 0.000000 -5.260378 -5.778934 -3.810980 4.598419 3.134707 46.132580 -3.612313 -13.398105 -29.010774 0.000000 -0.000000 0.000000 -0.990144 1.510414 9.057155 0.197052 -6.708196 13.486837 1.132211 0.284955 -6.183497 -2.884023 1.400202 7.128740 6.279640 6.508499 -10.357369 -5.863595 -35.160417 -0.962885 -6.101175 -26.991618 -13.162169 11.628773 -25.063702 -4.983464 -5.942812 -11.562826 18.329049 6.409339 37.610444 4.114532 5.029518 38.072062 -22.096256 -15.483575 18.571534 -3.698899 1.150485 9.404671 14.370364 
0.180958 0.684074 0.918734 88.912202 -2.458183 71.064493 4.557551 5.814663 -1.874102 -8.630534 -4.363545 44.173636 5.544049 18.817636 -27.124089 0.000000 -0.000000 0.000000 -5.103971 -5.664107 -3.205777 4.633761 3.198346 45.880309 -3.668551 -13.616808 -29.268295 0.000000 -0.000000 0.000000 -0.963219 1.532669 9.036811 0.184069 -6.678771 13.205195 1.189167 0.243331 -6.218235 -2.826429 1.738945 6.751936 6.403160 6.713413 -10.296667 -5.907190 -35.322347 -0.713177 -6.100954 -26.904968 -13.672012 11.542484 -24.956734 -5.361144 -7.864148 -10.912649 19.045499 6.417514 37.607639 4.294295 4.938838 37.870786 -22.329838 -15.362043 19.074668 -3.302583 3.693274 8.469483 14.244105 
0.183006 0.682994 0.918506 88.950410 -2.447882 70.897499 4.577408 5.785079 -1.512054 -8.526361 -4.490662 44.141170 5.474015 18.863313 -27.261126 0.000000 -0.000000 0.000000 -5.040070 -5.760413 -2.917268 4.708550 3.184681 46.298322 -3.586914 -13.614606 -29.245430 0.000000 -0.000000 0.000000 -0.991427 1.525696 8.892603 0.131709 -6.700750 12.851774 1.237733 0.167328 -6.077520 -2.786502 2.025432 6.977223 6.505364 6.904183 -10.921252 -5.942966 -35.526871 -0.565026 -5.928912 -26.572372 -14.075117 11.398976 -24.914358 -5.494935 -8.839331 -10.780442 19.700603 6.396878 37.811854 4.551438 4.743217 37.686574 -22.811984 -15.262921 19.187377 -3.294411 4.948091 8.160358 14.306307 
0.184426 0.682186 0.918186 88.938501 -2.443164 70.815619 4.643205 5.796817 -1.293722 -8.428035 -4.548734 44.159024 5.457728 18.851034 -27.368180 0.000000 -0.000000 0.000000 -4.928955 -5.714511 -2.682629 4.716849 3.227462 46.320431 -3.541136 -13.718138 -29.310692 0.000000 -0.000000 0.000000 -1.016116 1.547916 8.762119 0.080600 -6.639448 12.728360 1.250291 0.195313 -6.075773 -2.788095 1.943855 6.701633 6.638022 6.947752 -11.002103 -5.966429 -35.585781 -0.583137 -5.792936 -26.504289 -13.970377 11.323739 -24.842057 -5.392512 -8.518510 -10.932793 19.632486 6.315514 37.892776 4.493359 4.882518 37.688718 -22.678481 -15.395376 18.970112 -3.445693 4.170227 8.543347 14.315322 
0.185258 0.680974 0.917714 88.973343 -2.458057 70.561183 4.781986 5.872377 -1.018082 -8.554470 -4.689510 44.313593 5.419079 18.886534 -27.535012 0.000000 -0.000000 0.000000 -4.760470 -5.723660 -2.355542 4.656806 3.345639 46.437240 -3.552910 -13.922646 -29.518529 0.000000 -0.000000 0.000000 -1.171785 1.550515 8.900583 0.049489 -6.630809 12.406798 1.278104 0.170552 -5.878609 -2.711546 2.122351 6.667928 6.673453 6.919958 -11.092069 -5.859916 -35.495882 -0.477842 -5.334696 -26.486700 -14.630292 11.113209 -24.724758 -5.341066 -9.429384 -10.788055 19.935790 6.248899 37.829254 4.534219 4.998973 37.898084 -23.016511 -15.949438 19.021421 -3.075747 5.356185 8.059406 14.281910 
0.185448 0.680397 0.917231 89.071650 -2.482970 70.667816 4.824564 5.803322 -1.223925 -8.609740 -4.655451 44.515825 5.348295 18.854912 -27.671337 0.000000 -0.000000 0.000000 -4.747205 -5.643216 -2.498063 4.642273 3.140376 46.595777 -3.592822 -13.967423 -29.589532 0.000000 -0.000000 0.000000 -1.215276 1.539030 8.994802 0.029764 -6.566949 12.134643 1.216102 0.191111 -6.122638 -2.753444 2.073290 6.522362 6.787754 6.865183 -10.495657 -5.739190 -35.339106 -0.762461 -5.519985 -26.624781 -14.143860 10.991960 -24.574073 -5.223590 -8.301640 -11.241086 19.655601 6.125486 37.728213 4.191327 4.865800 37.675199 -22.582070 -14.949663 18.717924 -3.303533 4.040386 8.920304 13.948574 
0.185433 0.679963 0.917027 89.166153 -2.485321 70.692332 4.923961 5.822277 -1.307981 -8.615136 -4.624923 44.589254 5.418484 18.691104 -27.657525 0.000000 -0.000000 0.000000 -4.729940 -5.673366 -2.453656 4.596829 3.100753 46.377861 -3.552004 -14.048025 -29.806586 0.000000 -0.000000 0.000000 -1.308685 1.583353 9.017858 0.062879 -6.571732 12.053102 1.244414 0.194612 -6.179352 -2.815542 1.886388 6.564198 6.735603 6.858610 -10.328333 -5.737683 -35.138853 -0.717082 -5.520194 -26.761445 -14.145377 11.114772 -24.636872 -5.498367 -8.222005 -10.811211 19.484833 6.039528 37.459610 4.081731 5.173004 37.719838 -22.272552 -15.271377 18.933888 -3.377776 3.644047 8.465459 13.841753 
0.185435 0.679411 0.917059 89.266002 -2.474562 70.721845 5.034989 5.841153 -1.363187 -8.754843 -4.695566 44.605318 5.380580 18.581204 -27.659135 0.000000 -0.000000 0.000000 -4.722481 -5.746277 -2.503823 4.691233 3.034000 46.614587 -3.588179 -14.038213 -29.645369 0.000000 -0.000000 0.000000 -1.340570 1.585360 9.092133 0.082912 -6.518824 11.891822 1.209711 0.155019 -6.171409 -2.658077 1.904367 6.307129 6.598854 6.735563 -9.901653 -5.635733 -34.918437 -0.763294 -5.626383 -26.919523 -14.262916 11.152154 -24.628896 -5.500949 -8.763797 -10.766478 19.441353 6.039663 37.180139 4.042451 5.239690 37.840176 -22.258085 -15.324584 18.871761 -3.230799 4.138364 8.221828 13.833362 
0.185286 0.679097 0.917214 89.333308 -2.464775 70.791106 5.091419 5.845300 -1.449066 -8.866532 -4.769882 44.586211 5.365468 18.612820 -27.656428 0.000000 -0.000000 0.000000 -4.763843 -5.801481 -2.539573 4.751666 2.942625 46.555493 -3.615008 -13.981746 -29.698751 0.000000 -0.000000 0.000000 -1.357912 1.581315 9.148340 0.115015 -6.493326 11.768861 1.199561 0.184956 -6.082118 -2.596182 1.890965 5.986408 6.540604 6.622876 -9.704828 -5.462571 -34.601032 -0.942579 -5.863902 -27.149747 -14.136766 11.101580 -24.610991 -5.353952 -7.893311 -11.115227 19.127737 6.018117 36.995970 3.923195 5.278777 37.880516 -22.327650 -15.204007 18.797604 -3.329558 3.205287 8.682514 14.012134 
0.185014 0.679173 0.917463 89.379064 -2.489115 70.997493 5.079129 5.808067 -1.655581 -8.839336 -4.657881 44.554318 5.443549 18.437803 -27.604546 0.000000 -0.000000 0.000000 -4.878560 -5.923268 -2.684939 4.805049 2.916225 46.445048 -3.579771 -13.877256 -29.613313 0.000000 -0.000000 0.000000 -1.379934 1.608243 9.184654 0.172074 -6.489909 11.706763 1.183690 0.184090 -6.301815 -2.431220 1.871888 5.732582 6.272863 6.499051 -9.285129 -5.349345 -34.185335 -0.918614 -6.253325 -27.291120 -13.853895 11.267978 -24.772083 -5.136550 -8.397282 -11.054510 19.018691 6.117709 36.714189 4.063606 5.561101 38.110084 -21.985805 -15.806388 18.654146 -3.353827 3.597561 8.564120 14.274648 
0.184409 0.679301 0.917742 89.392556 -2.522908 71.084910 5.074895 5.816228 -1.725885 -8.902978 -4.613680 44.409615 5.482707 18.414917 -27.538289 0.000000 -0.000000 0.000000 -5.030744 -6.029083 -2.844577 5.048671 2.903759 46.515323 -3.473523 -13.868712 -29.436833 0.000000 -0.000000 0.000000 -1.366909 1.663265 9.347094 0.173448 -6.448975 11.436930 1.253269 0.184291 -6.096094 -2.338088 1.915282 5.634267 6.274276 6.599999 -9.380612 -5.380621 -34.293907 -1.027368 -6.306570 -27.095572 -13.718918 11.341537 -24.671025 -5.250259 -8.819151 -10.900812 18.861400 6.048715 36.710833 3.786469 5.499478 37.670510 -21.752670 -15.621053 18.907876 -3.124774 4.472111 8.375071 13.622115 
0.183848 0.679608 0.917993 89.409521 -2.507563 71.241162 5.092558 5.911620 -1.940439 -8.977728 -4.662761 44.411289 5.490577 18.376440 -27.511552 0.000000 -0.000000 0.000000 -5.038521 -6.170615 -3.091610 5.028487 2.931542 46.557428 -3.538518 -13.822566 -29.321982 0.000000 -0.000000 0.000000 -1.247053 1.678902 9.498668 0.191830 -6.419936 11.302599 1.268410 0.189120 -6.203107 -2.333393 1.791503 5.212382 6.141399 6.600968 -8.913018 -5.564311 -34.277752 -1.000916 -6.229283 -27.015928 -13.747864 11.127879 -24.576833 -5.516411 -8.697725 -10.643977 18.937363 6.069731 36.634304 3.854242 5.228685 37.511215 -21.886211 -15.351460 18.926870 -3.237063 4.317715 8.308044 13.742360 
